<svg xmlns="http://www.w3.org/2000/svg" viewBox="0 0 128 128">
    <path fill="white" d="M82.892,128c-0.001,0-0.001,0-0.002,0c-18.188,0-38.422-10.423-55.517-28.594
    C9.247,81.124-0.346,59.916,1.091,41.258l0.047-0.617l0.388-0.482c1.394-1.734,2.678-3.196,3.926-4.468
    c2.87-2.905,6.057-5.488,9.478-7.683l1.665-1.069l1.087,1.654c5.134,7.815,10.879,15.637,17.075,23.246l1.016,1.247l-1,1.26
    c-0.176,0.222-0.424,0.506-0.777,0.737l-7.35,4.965c-0.502,0.332-0.847,0.915-0.99,1.655c-0.238,1.233,0.115,2.681,0.942,3.872
    c2.24,3.254,11.207,13.347,16.848,19.413c5.938,5.692,15.828,14.757,19.03,17.042c0.919,0.654,1.986,1.016,3.004,1.016
    c1.051,0,1.93-0.391,2.353-1.049l1.378-2.109c1.176-1.803,2.351-3.602,3.531-5.398c0.248-0.359,0.506-0.59,0.707-0.756
    l1.284-1.064l1.277,1.072c7.481,6.285,15.18,12.117,22.88,17.337l1.592,1.078l-1.016,1.633c-2.159,3.473-4.703,6.707-7.561,9.615
    c-1.253,1.276-2.691,2.587-4.395,4.005l-0.488,0.406l-0.634,0.051C85.247,127.955,84.07,128,82.892,128z M5.036,42.18
    C3.948,59.533,13.109,79.339,30.25,96.627C46.628,114.036,65.802,124,82.89,124c0.001,0,0.001,0,0.002,0
    c0.857,0,1.713-0.025,2.551-0.078c1.386-1.175,2.57-2.265,3.608-3.321c2.207-2.246,4.212-4.701,5.978-7.318
    c-6.704-4.617-13.394-9.683-19.93-15.095c-0.841,1.285-1.689,2.584-2.538,3.885l-1.373,2.1c-1.154,1.795-3.291,2.874-5.707,2.874
    c-1.845,0-3.737-0.626-5.329-1.761c-3.517-2.51-13.725-11.896-19.517-17.452l-0.08-0.08c-5.504-5.918-14.792-16.337-17.248-19.903
    c-1.445-2.082-2.023-4.6-1.58-6.903c0.348-1.807,1.305-3.307,2.695-4.225l5.911-3.993C24.994,46.078,20,39.279,15.452,32.47
    c-2.556,1.784-4.955,3.805-7.149,6.026C7.269,39.55,6.195,40.761,5.036,42.18z"/>
    <path fill="white" d="M71.626,77.054h-25.7l-0.135-1.855c-0.019-0.256-0.395-6.372,4.912-14.286
    c2.251-3.358,6.23-6.173,10.079-8.895c4.424-3.131,9-6.367,9-9.299V41.17c0-5.317-4.241-9.644-9.456-9.644
    c-5.218,0-9.463,4.327-9.463,9.644h-4c0-7.523,6.04-13.644,13.463-13.644c7.419,0,13.457,6.121,13.457,13.644v1.549
    c0,5.002-5.193,8.676-10.69,12.564c-3.553,2.513-7.226,5.112-9.066,7.857c-2.855,4.256-3.796,7.852-4.103,9.914h21.703V77.054z"/>
    <rect x="92.551" y="27.976" fill="white" width="4" height="49.664"/>
    <polygon fill="white" points="102.205,65.133 73.72,65.133 72.011,62.091 92.505,28.485 95.921,30.568 77.282,61.132 102.205,61.132"/>
    <path fill="white" d="M27.696,20.608l-2.856-2.802c0.477-0.485,0.962-0.96,1.45-1.426l2.762,2.894
    C28.595,19.71,28.142,20.154,27.696,20.608z"/>
    <path fill="white" d="M112.298,100.719l-3.031-2.611c0.691-0.801,1.369-1.635,2.016-2.479l3.174,2.436
    C113.763,98.967,113.037,99.859,112.298,100.719z M116.887,94.662l-3.334-2.211c0.718-1.082,1.406-2.201,2.046-3.329l3.479,1.976
    C118.392,92.305,117.654,93.504,116.887,94.662z M121.017,87.39l-3.605-1.732c0.559-1.162,1.086-2.365,1.568-3.578l3.717,1.479
    C122.18,84.856,121.615,86.146,121.017,87.39z M124.109,79.62l-3.81-1.221c0.396-1.236,0.755-2.502,1.066-3.762l3.884,0.959
    C124.917,76.944,124.533,78.298,124.109,79.62z M126.113,71.506l-3.94-0.695c0.225-1.271,0.408-2.574,0.548-3.873l3.978,0.426
    C126.55,68.752,126.354,70.145,126.113,71.506z M127.003,63.191l-3.997-0.154c0.029-0.757,0.044-1.515,0.044-2.273
    c-0.001-0.545-0.009-1.094-0.023-1.643l3.999-0.11c0.017,0.583,0.024,1.167,0.025,1.75
    C127.051,61.573,127.034,62.383,127.003,63.191z M122.786,55.219c-0.127-1.303-0.297-2.609-0.507-3.881l3.948-0.651
    c0.224,1.359,0.406,2.754,0.54,4.147L122.786,55.219z M121.514,47.502c-0.3-1.27-0.646-2.54-1.026-3.776l3.823-1.179
    c0.408,1.322,0.776,2.68,1.097,4.037L121.514,47.502z M119.206,40.029c-0.466-1.208-0.98-2.419-1.53-3.598l3.625-1.691
    c0.589,1.262,1.14,2.558,1.638,3.853L119.206,40.029z M115.901,32.947c-0.628-1.135-1.305-2.264-2.012-3.354l3.357-2.175
    c0.756,1.167,1.48,2.376,2.154,3.591L115.901,32.947z M111.65,26.386c-0.781-1.041-1.606-2.066-2.454-3.046l3.025-2.616
    c0.907,1.049,1.792,2.146,2.628,3.26L111.65,26.386z M106.537,20.469c-0.919-0.927-1.877-1.829-2.847-2.681l2.641-3.005
    c1.039,0.912,2.063,1.877,3.047,2.869L106.537,20.469z M31.928,16.722l-2.553-3.08c1.075-0.891,2.191-1.751,3.317-2.559
    l2.332,3.251C33.972,15.087,32.931,15.89,31.928,16.722z M100.669,15.311c-1.031-0.787-2.104-1.546-3.186-2.257l2.197-3.343
    c1.16,0.763,2.309,1.577,3.414,2.419L100.669,15.311z M38.277,12.168l-2.097-3.406c1.19-0.733,2.417-1.429,3.645-2.069
    l1.849,3.547C40.53,10.837,39.387,11.486,38.277,12.168z M94.146,11.026c-1.134-0.635-2.301-1.236-3.47-1.786l1.703-3.62
    c1.254,0.59,2.506,1.235,3.722,1.916L94.146,11.026z M45.201,8.557l-1.594-3.669c1.28-0.556,2.593-1.071,3.901-1.532l1.328,3.773
    C47.618,7.557,46.395,8.038,45.201,8.557z M87.087,7.704c-1.208-0.467-2.449-0.897-3.688-1.278l1.174-3.823
    c1.33,0.408,2.661,0.869,3.958,1.371L87.087,7.704z M52.564,5.961l-1.059-3.857c1.335-0.367,2.707-0.691,4.076-0.965l0.784,3.923
    C55.089,5.316,53.81,5.619,52.564,5.961z M79.629,5.413c-1.259-0.291-2.549-0.542-3.833-0.744l0.623-3.951
    c1.378,0.217,2.761,0.486,4.11,0.798L79.629,5.413z M60.221,4.433l-0.503-3.968c1.382-0.175,2.786-0.303,4.172-0.38l0.222,3.994
    C62.819,4.15,61.51,4.27,60.221,4.433z M71.916,4.197C70.627,4.086,69.315,4.02,68.017,4l0.061-4
    c1.393,0.021,2.8,0.092,4.183,0.211L71.916,4.197z"/>
    <path fill="white" d="M109.53,103.723l-2.856-2.801c0.448-0.457,0.888-0.918,1.317-1.383l2.938,2.715
    C110.472,102.748,110.005,103.238,109.53,103.723z"/>
</svg>