<svg width="26" height="26" viewBox="0 0 26 26" fill="none" xmlns="http://www.w3.org/2000/svg">
<path d="M13.1582 3.25C18.5361 3.25 22.75 7.63179 22.75 13.0283C22.768 18.3412 18.4998 22.6657 13.21 22.6943C11.2963 22.6943 10.4062 22.4133 8.86035 21.291C7.88256 22.5536 4.7864 23.5407 4.65137 21.8525C4.65136 20.5854 4.37223 19.5146 4.05566 18.3457C3.67852 16.9054 3.25 15.3007 3.25 12.9766C3.25016 7.42588 7.78514 3.25004 13.1582 3.25ZM13.2891 8.04785C10.6723 7.91224 8.63232 9.73141 8.18066 12.584C7.80817 14.9456 8.46981 17.822 9.0332 17.9717C9.30345 18.0366 9.98271 17.4849 10.4062 17.0596C11.1068 17.5456 11.9228 17.8369 12.7715 17.9053C15.4829 18.0363 17.8004 15.9633 17.9824 13.2432C18.0883 10.5175 16.0005 8.20894 13.2891 8.05273V8.04785Z" fill="url(#paint0_linear_24_1615)"/>
<defs>
<linearGradient id="paint0_linear_24_1615" x1="22.5051" y1="8.83965" x2="9.3224" y2="24.1478" gradientUnits="userSpaceOnUse">
<stop stop-color="white"/>
<stop offset="1" stop-color="white"/>
</linearGradient>
</defs>
</svg>
