<svg width="20" height="20" viewBox="0 0 20 20" fill="none" xmlns="http://www.w3.org/2000/svg">
<path d="M19.5996 15.3663L16.8733 12.6419C16.3348 12.1114 15.4721 12.1114 14.9335 12.6419L13.2033 14.4199C13.027 14.5729 12.7696 14.5729 12.5932 14.4199C11.3111 13.3923 10.0814 12.3026 8.9137 11.1459C7.74597 9.9845 6.64974 8.76093 5.62023 7.47523C5.45817 7.30316 5.45817 7.03551 5.62023 6.86344L7.4314 5.09023C7.96045 4.54058 7.96045 3.6707 7.4314 3.12105L4.70511 0.387144C4.15222 -0.129048 3.2943 -0.129048 2.74141 0.387144L0.501274 2.6431C0.501274 2.6431 0.401183 2.73869 0.367819 2.77692C-0.895237 4.29682 1.12089 9.1194 6.01106 13.9945C9.57145 17.584 13.5942 19.9881 15.9963 19.9881C16.3967 20.0263 16.8161 19.9785 17.1498 19.7539C17.2165 19.7061 17.4024 19.5388 17.4024 19.5388L19.5996 17.3259C20.1335 16.781 20.1335 15.9111 19.5996 15.3663Z" fill="white"/>
</svg>
