<svg width="24" height="24" viewBox="0 0 24 24" fill="none" xmlns="http://www.w3.org/2000/svg">
<path d="M19.334 4.17594C19.334 4.17594 21.168 3.40808 21.0152 5.27287C20.9642 6.04073 20.5057 8.7282 20.1491 11.6351L18.9264 20.246C18.9264 20.246 18.8245 21.5075 17.9075 21.7269C16.9904 21.9462 15.6149 20.959 15.3601 20.7396C15.1564 20.5751 11.5392 18.107 10.2655 16.9004C9.90891 16.5713 9.50134 15.9131 10.3165 15.1453L15.6658 9.66062C16.2772 9.00245 16.8885 7.46675 14.3412 9.33154L7.20878 14.542C7.20878 14.542 6.39364 15.0904 4.86529 14.5968L1.55377 13.4999C1.55377 13.4999 0.331064 12.6772 2.41986 11.8544C7.51448 9.27665 13.7808 6.64401 19.334 4.17594Z" fill="white"/>
</svg>
