<svg preserveAspectRatio="xMidYMid meet" viewBox="15.7 53.6 159.6 92.7" xmlns="http://www.w3.org/2000/svg" role="img" aria-label="54B0:A8 2?0B>@8O">
  <g>
    <path d="M160.8 85.2h-6.3c-.8 0-4.2-.3-4.2-.3-11.1-1.3-16.8-7.2-22.3-13-1.8-1.9-3.5-3.6-5.3-5.2l-.6-.5c-12.7-10.8-15.5-12.6-40.3-12.6h-9c1.8.4 2.1 2 2.1 3.9l1 4.1h5.9c22.5 0 23.7 1 35.1 10.7l.6.5c1.5 1.3 3.1 2.9 4.7 4.6 2.3 2.4 4.8 5 7.9 7.4H75v8h85.8c3.6 0 6.4 3.3 6.4 7.3v14.4c0 3.2-2.6 5.8-5.8 5.8h-21c-2.8-7.2-9.7-12.3-17.8-12.3s-15.1 5.1-17.8 12.3H76v8h27.5c.6 10 8.9 18 19.1 18s18.5-8 19.1-18h19.8c7.6 0 13.8-6.2 13.8-13.8v-14.4c-.1-8.3-6.5-14.9-14.5-14.9zm-27.1 42.1c0 6.1-5 11.1-11.1 11.1s-11.1-5-11.1-11.1 5-11.1 11.1-11.1 11.1 4.9 11.1 11.1z" fill="#dbeafe"/>
    <path d="M78 92.9V57.6c0-1.9-1.3-3.5-3.1-3.9-.3-.1-.6-.1-.9-.1H50.7c-2.2 0-4 1.8-4 4v26.9h-27c-2.2 0-4 1.8-4 4v23.3c0 2.2 1.8 4 4 4h26.9v26.3c0 2.2 1.8 4 4 4H74c2.2 0 4-1.8 4-4V92.9zm-8 45.2H54.7v-26.3c0-2.2-1.8-4-4-4h-27V92.6h26.9c2.2 0 4-1.8 4-4v-27H70v76.5z" fill="#2563eb"/>
  </g>
</svg>
